<?xml version="1.0" encoding="utf-8"?>
<!-- Generator: Adobe Illustrator 25.0.0, SVG Export Plug-In . SVG Version: 6.00 Build 0)  -->
<svg version="1.1" id="Laag_2_1_" xmlns="http://www.w3.org/2000/svg" xmlns:xlink="http://www.w3.org/1999/xlink" x="0px" y="0px"
	 viewBox="0 0 172 158" style="enable-background:new 0 0 172 158;" xml:space="preserve">
<style type="text/css">
	.st0{fill:#B2D235;}
	.st1{opacity:0.25;fill:#1D1D1B;enable-background:new    ;}
	.st2{fill:#FFFFFF;}
</style>
<g>
	<path class="st0" d="M172,83.2V0H0v83.2l0,0C0,130.7,38.5,158,86.1,158C133.5,158.1,172,130.8,172,83.2C172,83.3,172,83.2,172,83.2
		z"/>
	<path class="st1" d="M80.1,88.7c0.8-1.4,1.7-3.2,2.4-5.2c-0.9-0.2-1.6-0.4-2.2-0.5c-0.9-0.2-0.8-0.6-0.3-1c0.7-0.7,0-1.1-0.9-0.5
		c-0.5,0.4-1.8,0.9-2.2,0.5c-0.2-0.2-1-0.4-1.7-0.5c-1.1,0-2.2,0.3-2.4,0.6c-0.1,0.2,0.1,0.4,0.4,0.5c-1.8,0.1-3.1-0.3-3.1,0.1
		c0,0.7,2,0.5,3.7,1.6c0.1,0.1,0.2,0.1,0.3,0.2c3.1,2.3,4.2,4.8,4.5,6.4C79.1,90.5,79.6,89.6,80.1,88.7z"/>
	<path class="st1" d="M93.6,89.7l-1.9-3.5c0-0.1-0.1-0.2-0.1-0.3c-1-0.3-2.1-0.7-3.2-1c-0.7,1-1.4,2-2.1,3c3.7,1.1,8.2,2.7,8.2,2.7
		l0,0C94.1,90.5,93.8,90.1,93.6,89.7z"/>
	<path class="st2" d="M31.1,81.5H14.5v-5.3l16.5-24.1H38v23.7h3.9v5.7H38v6.4h-6.9V81.5z M31.5,75.8V60.9l-9.6,14.8h9.6V75.8z"/>
	<path class="st2" d="M132.5,88h-6.6c0-1.4,0-2.8,0-4.2c-1.3,2.2-4,5.1-9.9,5.1c-8.9,0-14.7-6.9-14.7-15.4c0-9.4,6.7-15.3,14.6-15.3
		c5.6,0,8.6,2.9,9.7,4.6c0-1.4,0-2.8,0-4.2v-9.6h6.9V88z M108.1,73.3c0,4.9,3.5,8.9,8.9,8.9c2.5,0,4.8-1,6.4-2.6
		c1.6-1.6,2.6-3.9,2.5-6.5c0-2.5-1-4.7-2.6-6.2c-1.6-1.6-3.8-2.5-6.3-2.5C111.4,64.5,108.1,68.8,108.1,73.3L108.1,73.3z"/>
	<path class="st2" d="M149.7,66.7c0-1.5-0.8-3.2-3.5-3.1c-2.3,0-3.4,1.5-3.4,2.9c0,1.8,2.2,2.8,4.9,3.6c4.6,1.3,9.6,2.6,9.7,8.9
		c0.1,6-4.9,9.8-11,9.8c-4.5,0-10.6-2.3-11.1-9.4h6.9c0.3,3.1,3,3.8,4.3,3.8c2.2,0,4-1.4,4-3.4c0-2.5-2.2-3.1-7.5-5
		c-3.9-1.2-7.1-3.4-7.1-7.5c0-5.7,4.8-9.2,10.4-9.2c3.9,0,9.7,1.8,10.3,8.7h-6.9V66.7z"/>
	<path class="st2" d="M95.1,90.8l3.6,0.4c0.7,0.1,0.9-0.2,0.4-0.6l-1-0.9c-0.4-0.4-0.5-0.7-0.5-1.3c-0.1-4.5-0.4-8.4-0.5-10.9
		c-0.1-2.6-0.7-2.1-1.3-0.5c-1.3,3.2-2.5,5-3.8,7.1c-0.5,0.9-0.5,1.6-0.2,2.2l1.9,3.5C93.9,90.3,94.4,90.8,95.1,90.8z"/>
	<path class="st2" d="M80.8,45.5c-4.6,0.4-8.1,4.4-7.7,9s4.4,8.1,9,7.7s8.1-4.4,7.7-9S85.4,45.1,80.8,45.5z"/>
	<path class="st2" d="M78.9,93.1l4.6-0.7c0.6-0.1,0.8-0.6,1-1.3c0.4-1.5,1.3-2.5,1.3-2.5c9.6-11.8,10.3-26.4,11.4-33.4
		c0.1-0.5,0-1-0.5-1.3c-0.6-0.3-1.1,0.2-1.2,0.5C88.3,70.2,73.2,63,73.2,63c-0.8-0.3-1.5-0.2-1.8,0.6c-0.3,0.8,0.3,1.6,1.3,2
		c2.9,1.2,9.4,2.7,10.7,8.7c1.2,5.5-1.3,10.8-3.2,14.3c-0.7,1.2-1.5,2.5-1.9,3.2C77.9,92.5,78.1,93.1,78.9,93.1z"/>
	<path class="st2" d="M45.3,48.8h6.9v21.2l9.9-11h8.3l-12,12.7l12.1,16.3h-7.9L52.3,73.4V88h-6.9C45.3,88,45.3,48.8,45.3,48.8z"/>
</g>
</svg>
